<svg version="1.1" id="Layer_1" xmlns="http://www.w3.org/2000/svg" xmlns:xlink="http://www.w3.org/1999/xlink" x="0px" y="0px"
	 width="100%" viewBox="0 0 1600 1600" enable-background="new 0 0 1600 1600" xml:space="preserve">
<path fill="#000000" opacity="1.000000" stroke="none" 
	d="
M739.000000,1601.000000 
	C492.666718,1601.000000 246.833420,1601.000000 1.000099,1601.000000 
	C1.000066,1067.666748 1.000066,534.333618 1.000033,1.000314 
	C534.333069,1.000209 1067.666138,1.000209 1600.999512,1.000105 
	C1600.999634,534.333008 1600.999634,1067.666016 1600.999756,1600.999512 
	C1313.833374,1601.000000 1026.666626,1601.000000 739.000000,1601.000000 
M1004.500000,1209.000732 
	C1013.739868,1209.000732 1022.979736,1209.000732 1032.661621,1209.000732 
	C1032.661621,1169.693970 1032.661621,1131.119507 1032.661621,1092.092407 
	C1071.676880,1092.092407 1110.233154,1092.092407 1149.094482,1092.092407 
	C1149.094482,1053.198120 1149.094482,1014.762024 1149.094482,975.746948 
	C1188.091675,975.746948 1226.782715,975.746948 1265.408691,975.746948 
	C1265.408691,858.911255 1265.408691,742.656799 1265.408691,626.017395 
	C1226.534790,626.017395 1187.949951,626.017395 1148.918335,626.017395 
	C1148.918335,587.058777 1148.918335,548.482788 1148.918335,509.483704 
	C1109.888794,509.483704 1071.307251,509.483704 1032.286011,509.483704 
	C1032.286011,470.491974 1032.286011,431.924225 1032.286011,393.350708 
	C876.634033,393.350708 721.426880,393.350708 565.799988,393.350708 
	C565.799988,432.271851 565.799988,470.842560 565.799988,509.789917 
	C526.959595,509.789917 488.537567,509.789917 449.589294,509.789917 
	C449.589294,548.724854 449.589294,587.281921 449.589294,626.226318 
	C410.469299,626.226318 371.877075,626.226318 333.344910,626.226318 
	C333.344910,743.002930 333.344910,859.386169 333.344910,976.187988 
	C372.260895,976.187988 410.832214,976.187988 449.779541,976.187988 
	C449.779541,1015.027954 449.779541,1053.450439 449.779541,1092.397705 
	C488.715576,1092.397705 527.274658,1092.397705 566.218201,1092.397705 
	C566.218201,1131.517090 566.218201,1170.110352 566.218201,1209.000732 
	C712.238708,1209.000732 857.869385,1209.000732 1004.500000,1209.000732 
z"/>
<path fill="#FEFEFE" opacity="1.000000" stroke="none" 
	d="
M1004.000000,1209.000732 
	C857.869385,1209.000732 712.238708,1209.000732 566.218201,1209.000732 
	C566.218201,1170.110352 566.218201,1131.517090 566.218201,1092.397705 
	C527.274658,1092.397705 488.715576,1092.397705 449.779541,1092.397705 
	C449.779541,1053.450439 449.779541,1015.027954 449.779541,976.187988 
	C410.832214,976.187988 372.260895,976.187988 333.344910,976.187988 
	C333.344910,859.386169 333.344910,743.002930 333.344910,626.226318 
	C371.877075,626.226318 410.469299,626.226318 449.589294,626.226318 
	C449.589294,587.281921 449.589294,548.724854 449.589294,509.789917 
	C488.537567,509.789917 526.959595,509.789917 565.799988,509.789917 
	C565.799988,470.842560 565.799988,432.271851 565.799988,393.350708 
	C721.426880,393.350708 876.634033,393.350708 1032.286011,393.350708 
	C1032.286011,431.924225 1032.286011,470.491974 1032.286011,509.483704 
	C1071.307251,509.483704 1109.888794,509.483704 1148.918335,509.483704 
	C1148.918335,548.482788 1148.918335,587.058777 1148.918335,626.017395 
	C1187.949951,626.017395 1226.534790,626.017395 1265.408691,626.017395 
	C1265.408691,742.656799 1265.408691,858.911255 1265.408691,975.746948 
	C1226.782715,975.746948 1188.091675,975.746948 1149.094482,975.746948 
	C1149.094482,1014.762024 1149.094482,1053.198120 1149.094482,1092.092407 
	C1110.233154,1092.092407 1071.676880,1092.092407 1032.661621,1092.092407 
	C1032.661621,1131.119507 1032.661621,1169.693970 1032.661621,1209.000732 
	C1022.979736,1209.000732 1013.739868,1209.000732 1004.000000,1209.000732 
M722.500183,509.699432 
	C709.396851,509.699432 696.293579,509.699432 682.688721,509.699432 
	C682.688721,548.764648 682.688721,587.322144 682.688721,626.259766 
	C643.589966,626.259766 604.997986,626.259766 566.004517,626.259766 
	C566.004517,665.227234 566.004517,703.811401 566.004517,742.907959 
	C527.048645,742.907959 488.494232,742.907959 449.896729,742.907959 
	C449.896729,781.850769 449.896729,820.277527 449.896729,859.212646 
	C488.647125,859.212646 527.204285,859.212646 566.146973,859.212646 
	C566.146973,898.307983 566.146973,936.896545 566.146973,976.073181 
	C605.230347,976.073181 643.927917,976.073181 682.971130,976.073181 
	C682.971130,1015.089294 682.971130,1053.515503 682.971130,1092.053711 
	C760.720581,1092.053711 838.116760,1092.053711 916.014404,1092.053711 
	C916.014404,1053.256958 916.014404,1014.703674 916.014404,975.830566 
	C954.949097,975.830566 993.383240,975.830566 1032.439697,975.830566 
	C1032.439697,936.807190 1032.439697,898.103516 1032.439697,858.980957 
	C1071.631836,858.980957 1110.200806,858.980957 1148.632568,858.980957 
	C1148.632568,820.006653 1148.632568,781.460449 1148.632568,742.497253 
	C1109.693726,742.497253 1071.121460,742.497253 1032.104980,742.497253 
	C1032.104980,703.510498 1032.104980,664.941895 1032.104980,625.864990 
	C993.111145,625.864990 954.564087,625.864990 915.710083,625.864990 
	C915.710083,586.911804 915.710083,548.471313 915.710083,509.699432 
	C851.431641,509.699432 787.465942,509.699432 722.500183,509.699432 
z"/>
<path fill="#000000" opacity="1.000000" stroke="none" 
	d="
M723.000244,509.699432 
	C787.465942,509.699432 851.431641,509.699432 915.710083,509.699432 
	C915.710083,548.471313 915.710083,586.911804 915.710083,625.864990 
	C954.564087,625.864990 993.111145,625.864990 1032.104980,625.864990 
	C1032.104980,664.941895 1032.104980,703.510498 1032.104980,742.497253 
	C1071.121460,742.497253 1109.693726,742.497253 1148.632568,742.497253 
	C1148.632568,781.460449 1148.632568,820.006653 1148.632568,858.980957 
	C1110.200806,858.980957 1071.631836,858.980957 1032.439697,858.980957 
	C1032.439697,898.103516 1032.439697,936.807190 1032.439697,975.830566 
	C993.383240,975.830566 954.949097,975.830566 916.014404,975.830566 
	C916.014404,1014.703674 916.014404,1053.256958 916.014404,1092.053711 
	C838.116760,1092.053711 760.720581,1092.053711 682.971130,1092.053711 
	C682.971130,1053.515503 682.971130,1015.089294 682.971130,976.073181 
	C643.927917,976.073181 605.230347,976.073181 566.146973,976.073181 
	C566.146973,936.896545 566.146973,898.307983 566.146973,859.212646 
	C527.204285,859.212646 488.647125,859.212646 449.896729,859.212646 
	C449.896729,820.277527 449.896729,781.850769 449.896729,742.907959 
	C488.494232,742.907959 527.048645,742.907959 566.004517,742.907959 
	C566.004517,703.811401 566.004517,665.227234 566.004517,626.259766 
	C604.997986,626.259766 643.589966,626.259766 682.688721,626.259766 
	C682.688721,587.322144 682.688721,548.764648 682.688721,509.699432 
	C696.293579,509.699432 709.396851,509.699432 723.000244,509.699432 
M843.493774,742.830933 
	C809.424316,742.830933 775.354858,742.830933 741.301025,742.830933 
	C741.301025,781.921753 741.301025,820.466492 741.301025,858.879700 
	C780.168396,858.879700 818.733032,858.879700 857.326050,858.879700 
	C857.326050,820.080811 857.326050,781.572449 857.326050,742.830933 
	C852.798767,742.830933 848.644226,742.830933 843.493774,742.830933 
z"/>
<path fill="#FEFEFE" opacity="1.000000" stroke="none" 
	d="
M843.991699,742.830933 
	C848.644226,742.830933 852.798767,742.830933 857.326050,742.830933 
	C857.326050,781.572449 857.326050,820.080811 857.326050,858.879700 
	C818.733032,858.879700 780.168396,858.879700 741.301025,858.879700 
	C741.301025,820.466492 741.301025,781.921753 741.301025,742.830933 
	C775.354858,742.830933 809.424316,742.830933 843.991699,742.830933 
z"/>
</svg>